HIERARCHY
ROOT Hips
{
	OFFSET 0.00 0.00 0.00
	CHANNELS 6 Xposition Yposition Zposition Xrotation Yrotation Zrotation
	JOINT Spine
	{
		OFFSET 0.00000 4.88528 0.00000
		CHANNELS 3 Xrotation Yrotation Zrotation
		JOINT Head
		{
			OFFSET 0.00000 16.49416 0.00000
			CHANNELS 3 Xrotation Yrotation Zrotation
			End Site
			{
				OFFSET 0.00000 4.52755 0.00000
			}
		}
		JOINT LeftShoulder
		{
			OFFSET 0.00000 10.66345 0.00000
			CHANNELS 3 Xrotation Yrotation Zrotation
			JOINT LeftArm
			{
				OFFSET 7.53191 0.00000 0.00000
				CHANNELS 3 Xrotation Yrotation Zrotation
				JOINT LeftForeArm
				{
					OFFSET 10.22920 0.00000 0.00000
					CHANNELS 3 Yrotation Zrotation Xrotation
					JOINT LeftHand
					{
						OFFSET 8.67349 0.00000 0.00000
						CHANNELS 3 Xrotation Yrotation Zrotation
						JOINT LeftHandThumb1
						{
							OFFSET 0.00000 0.00000 0.00000
							CHANNELS 3 Xrotation Zrotation Yrotation
							End Site
							{
								OFFSET 0.00000 0.00000 3.93700
							}
						}
						End Site
						{
							OFFSET 3.93700 0.00000 0.00000
						}
					}
				}
			}
		}
		JOINT RightShoulder
		{
			OFFSET 0.00000 10.66345 0.00000
			CHANNELS 3 Xrotation Yrotation Zrotation
			JOINT RightArm
			{
				OFFSET -7.53191 0.00000 0.00000
				CHANNELS 3 Xrotation Yrotation Zrotation
				JOINT RightForeArm
				{
					OFFSET -10.22920 0.00000 0.00000
					CHANNELS 3 Yrotation Zrotation Xrotation
					JOINT RightHand
					{
						OFFSET -8.67349 0.00000 0.00000
						CHANNELS 3 Xrotation Yrotation Zrotation
						JOINT RightHandThumb1
						{
							OFFSET 0.00000 0.00000 0.00000
							CHANNELS 3 Xrotation Zrotation Yrotation
							End Site
							{
								OFFSET 0.00000 0.00000 3.93700
							}
						}
						End Site
						{
							OFFSET -3.93700 0.00000 0.00000
						}
					}
				}
			}
		}
	}
	JOINT LeftUpLeg
	{
		OFFSET 2.67219 0.00000 0.00000
		CHANNELS 3 Xrotation Yrotation Zrotation
		JOINT LeftLeg
		{
			OFFSET 0.00000 -16.26339 0.00000
			CHANNELS 3 Xrotation Yrotation Zrotation
			JOINT LeftFoot
			{
				OFFSET 0.00000 -14.32816 0.00000
				CHANNELS 3 Xrotation Yrotation Zrotation
				JOINT LeftToeBase
				{
					OFFSET 0.00000 -1.30219 4.85985
					CHANNELS 3 Xrotation Yrotation Zrotation
					End Site
					{
						OFFSET 0.00000 0.00000 2.95275
					}
				}
			}
		}
	}
	JOINT RightUpLeg
	{
		OFFSET -2.67219 0.00000 0.00000
		CHANNELS 3 Xrotation Yrotation Zrotation
		JOINT RightLeg
		{
			OFFSET 0.00000 -16.26339 0.00000
			CHANNELS 3 Xrotation Yrotation Zrotation
			JOINT RightFoot
			{
				OFFSET 0.00000 -14.32816 0.00000
				CHANNELS 3 Xrotation Yrotation Zrotation
				JOINT RightToeBase
				{
					OFFSET 0.00000 -1.30219 4.85985
					CHANNELS 3 Xrotation Yrotation Zrotation
					End Site
					{
						OFFSET 0.00000 0.00000 2.95275
					}
				}
			}
		}
	}
}
MOTION
Frames: 22
Frame Time: 0.008333
 5.5435 34.7403 -9.6306 8.6446 -29.0317 -39.5450 -5.7681 2.6818 25.9911 2.3203 11.5463 8.4770 44.4474 36.5156 5.7618 -58.5718 28.2451 -49.7844 -18.5346 -0.0000 -2.2355 2.9956 -13.0481 13.0499 33.1476 -0.0000 26.2537 19.7760 -19.1958 -13.0939 5.8502 0.4192 80.1300 61.0363 0.0000 -37.2401 -1.2243 4.7149 14.5738 32.8623 0.0000 -24.3270 -9.9302 -4.6062 40.3823 11.0762 -0.0000 0.0000 -7.4192 22.9080 -4.7865 -12.0506 0.0000 0.0000 -68.2954 20.0576 -53.2716 152.5840 -0.0000 0.0000 47.8351 8.1772 -9.9333 38.7445 -0.0000 -0.0000
 5.5432 34.7400 -9.5951 8.5536 -29.2008 -39.5827 -5.8063 2.7660 26.0575 2.3953 11.6879 8.6235 44.4479 36.4955 5.7146 -58.8490 28.2031 -49.6515 -18.6135 -0.0000 -2.1514 2.9509 -13.1588 12.7589 33.1476 -0.0000 26.2537 19.8058 -19.3146 -13.0727 5.9690 0.2983 80.0930 61.3170 0.0000 -37.0697 -1.2046 4.6373 14.5785 32.8623 0.0000 -24.3270 -9.9673 -4.4016 40.4332 11.1954 0.0000 -0.0000 -7.4652 22.8967 -5.3641 -11.7726 0.0000 0.0000 -68.0661 20.1749 -53.3794 152.5475 -0.0000 0.0000 47.8816 8.2285 -10.1565 38.6703 -0.0000 0.0000
 5.5405 34.7390 -9.5564 8.4427 -29.3581 -39.6132 -5.8166 2.8220 26.0960 2.4612 11.8464 8.7849 44.4053 36.4729 5.7012 -58.9521 28.1288 -49.5450 -18.7923 -0.0000 -2.1415 2.8998 -13.0601 12.6346 33.1476 -0.0000 26.2537 19.8330 -19.4688 -13.0688 6.0255 0.2816 80.0583 61.5365 0.0000 -36.7358 -1.2079 4.6831 14.4804 32.8623 0.0000 -24.3270 -9.9576 -4.2175 40.4686 11.3237 0.0000 0.0000 -7.5662 22.9843 -6.1720 -11.4795 0.0000 -0.0000 -67.8141 20.3254 -53.5155 152.4997 0.0000 -0.0000 48.0293 8.2938 -10.4257 38.5668 -0.0000 -0.0000
 5.5385 34.7379 -9.5174 8.3404 -29.4796 -39.6270 -5.8092 2.8489 26.1179 2.5563 11.9674 8.9603 44.3753 36.4777 5.6766 -59.1412 28.1124 -49.4614 -18.9704 -0.0000 -2.0445 2.8739 -13.0618 12.5236 33.1476 -0.0000 26.2537 19.8805 -19.6618 -13.0738 6.0191 0.2410 80.0312 61.7538 0.0000 -36.4524 -1.1917 4.5658 14.6447 32.8623 0.0000 -24.3270 -9.9988 -4.0421 40.4902 11.5188 -0.0000 -0.0000 -7.5882 23.0131 -6.9248 -11.2841 0.0000 -0.0000 -67.5073 20.4834 -53.7132 152.4913 0.0000 -0.0000 48.0770 8.3966 -10.7068 38.5553 -0.0000 0.0000
 5.5347 34.7387 -9.4791 8.2209 -29.5931 -39.6521 -5.7557 2.8101 26.1289 2.6378 12.1363 9.1378 44.3756 36.4812 5.6421 -59.2115 28.1254 -49.3804 -19.2262 -0.0000 -2.0439 2.8762 -13.0223 12.5693 33.1476 -0.0000 26.2537 19.9113 -19.7904 -13.1003 6.0023 0.2313 80.0008 61.9471 0.0000 -36.1945 -1.1626 4.4202 14.7521 32.8623 0.0000 -24.3270 -10.0992 -3.8095 40.5450 11.7780 -0.0000 -0.0000 -7.6744 23.0011 -8.0562 -10.5209 0.0000 0.0000 -67.1942 20.6509 -53.8912 152.4890 0.0000 0.0000 48.1692 8.5394 -10.9438 38.5084 0.0000 -0.0000
 5.5275 34.7410 -9.4419 8.1236 -29.6707 -39.6561 -5.6834 2.7039 26.1098 2.7552 12.3016 9.3571 44.4290 36.5066 5.5681 -59.3670 28.1370 -49.2738 -19.3964 -0.0000 -1.9886 2.9091 -13.0946 12.6423 33.1476 -0.0000 26.2537 19.9695 -19.8819 -13.1342 5.9809 0.2486 80.0061 62.1569 0.0000 -35.9742 -1.1495 4.3737 14.7408 32.8623 0.0000 -24.3270 -10.3193 -3.5108 40.5938 12.0803 0.0000 0.0000 -7.7239 22.9113 -9.3359 -9.4779 -0.0000 0.0000 -66.8905 20.8080 -54.1197 152.4938 0.0000 -0.0000 48.3372 8.6421 -11.1488 38.5579 -0.0000 0.0000
 5.5185 34.7477 -9.4065 8.0441 -29.7286 -39.6996 -5.6047 2.5600 26.1341 2.8660 12.4534 9.5513 44.3776 36.5052 5.5495 -59.4168 28.1621 -49.1643 -19.6023 -0.0000 -1.9666 2.9513 -13.1227 12.7936 33.1476 -0.0000 26.2537 19.9912 -19.9306 -13.1761 6.0032 0.2414 80.0088 62.3744 0.0000 -35.8797 -1.1437 4.3302 14.8106 32.8623 0.0000 -24.3270 -10.6372 -3.1560 40.7334 12.4135 0.0000 -0.0000 -7.7080 22.5929 -11.0240 -8.8006 -0.0000 -0.0000 -66.5938 20.9016 -54.3375 152.5096 -0.0000 -0.0000 48.4920 8.7926 -11.3627 38.5912 0.0000 0.0000
 5.5077 34.7575 -9.3708 7.9709 -29.7719 -39.7315 -5.5294 2.4104 26.1259 2.9844 12.5766 9.7832 44.4126 36.5099 5.4900 -59.5656 28.1956 -49.0493 -19.7863 -0.0000 -1.8908 2.9887 -13.1217 12.9514 33.1476 -0.0000 26.2537 20.0075 -19.9574 -13.1786 6.0404 0.2462 79.9963 62.5937 0.0000 -35.9383 -1.0958 4.1922 14.6635 32.8623 0.0000 -24.3270 -11.0586 -2.7055 40.8844 12.7348 -0.0000 0.0000 -7.6952 22.1923 -12.3379 -8.1431 0.0000 0.0000 -66.3242 20.9700 -54.5579 152.5386 0.0000 -0.0000 48.6401 8.9097 -11.5803 38.6332 0.0000 0.0000
 5.4934 34.7711 -9.3348 7.8896 -29.7789 -39.7783 -5.4320 2.2469 26.1072 3.0979 12.6598 10.0500 44.3951 36.4924 5.4824 -59.5748 28.1596 -48.9654 -20.0092 -0.0000 -1.8692 3.0484 -13.0486 13.2721 33.1476 -0.0000 26.2537 20.0391 -19.9802 -13.1499 6.0822 0.2847 79.9733 62.8130 0.0000 -36.0142 -1.0746 4.1392 14.5669 32.8623 0.0000 -24.3270 -11.4566 -2.2589 41.0601 13.0529 -0.0000 0.0000 -7.6851 21.6572 -13.7055 -7.1899 -0.0000 -0.0000 -66.0456 21.0264 -54.7782 152.5056 0.0000 -0.0000 49.0879 9.0269 -11.7417 38.5054 0.0000 0.0000
 5.4798 34.7859 -9.2999 7.8267 -29.8132 -39.8048 -5.3697 2.1061 26.0685 3.1918 12.7571 10.3238 44.3890 36.4862 5.4531 -59.7360 28.1787 -48.8290 -20.1406 -0.0000 -1.8836 3.0884 -13.1426 13.3490 33.1476 -0.0000 26.2537 20.0532 -20.0178 -13.1225 6.1219 0.3420 79.9467 63.0085 0.0000 -36.0835 -1.0616 4.1196 14.4641 32.8623 0.0000 -24.3270 -11.8855 -1.7468 41.2303 13.2969 -0.0000 -0.0000 -7.5655 21.0481 -15.1183 -6.6448 -0.0000 0.0000 -65.8462 21.0622 -54.9639 152.5822 -0.0000 -0.0000 49.1569 9.1001 -11.8479 38.5164 -0.0000 -0.0000
 5.4639 34.8035 -9.2673 7.7762 -29.8375 -39.8696 -5.3048 1.9517 26.0762 3.2807 12.8742 10.5499 44.3670 36.4528 5.4257 -59.7717 28.1182 -48.7089 -20.3217 -0.0000 -1.8145 3.0321 -13.0405 13.2111 33.1476 -0.0000 26.2537 20.0706 -20.0957 -13.1153 6.1008 0.4031 79.9441 63.1802 0.0000 -36.0825 -1.0511 4.0738 14.4805 32.8623 0.0000 -24.3270 -12.3094 -1.2120 41.4461 13.4466 -0.0000 0.0000 -7.5048 20.3866 -15.9740 -5.7899 -0.0000 0.0000 -65.6842 21.0510 -55.1201 152.6482 -0.0000 -0.0000 49.3091 9.2095 -11.9717 38.3556 0.0000 -0.0000
 5.4506 34.8206 -9.2297 7.7672 -29.8200 -39.8448 -5.2643 1.7622 25.9948 3.3740 12.9815 10.8277 44.4538 36.4758 5.3319 -60.0094 28.0697 -48.6271 -20.4260 -0.0000 -1.7639 3.0546 -13.0487 13.2981 33.1476 -0.0000 26.2537 20.0362 -20.1585 -13.1189 6.1463 0.4484 79.9536 63.3459 0.0000 -35.9451 -1.0140 3.9441 14.4310 32.8623 0.0000 -24.3270 -12.7256 -0.7198 41.6073 13.5995 0.0000 -0.0000 -7.3664 19.5696 -17.2092 -5.2122 0.0000 -0.0000 -65.4803 21.0702 -55.3935 152.7277 0.0000 -0.0000 49.3815 9.2878 -12.0968 38.3319 0.0000 -0.0000
 5.4325 34.8413 -9.1949 7.7210 -29.8252 -39.9028 -5.2053 1.6142 25.9719 3.4351 13.1068 11.0804 44.3966 36.4689 5.3294 -60.0339 27.9590 -48.5607 -20.5478 -0.0000 -1.8276 3.0281 -13.0684 13.1677 33.1476 -0.0000 26.2537 20.0481 -20.2471 -13.1138 6.1138 0.4988 79.9795 63.4622 0.0000 -35.8362 -1.0019 3.8864 14.4683 32.8623 0.0000 -24.3270 -12.8462 -0.3267 41.7648 13.4694 0.0000 -0.0000 -7.1338 19.2037 -18.1847 -4.8540 0.0000 -0.0000 -65.2966 21.0596 -55.5795 152.7839 -0.0000 -0.0000 49.5642 9.4178 -12.1700 38.2724 -0.0000 -0.0000
 5.4115 34.8642 -9.1651 7.7028 -29.8148 -40.0053 -5.1647 1.4528 26.0052 3.5169 13.1885 11.3242 44.3132 36.4520 5.3629 -60.0580 27.8581 -48.5173 -20.6562 -0.0000 -1.7411 3.0288 -13.0079 13.2286 33.1476 -0.0000 26.2537 20.0525 -20.3348 -13.1333 6.1050 0.5851 80.0125 63.5918 0.0000 -35.7961 -0.9854 3.8441 14.3892 32.8623 0.0000 -24.3270 -12.7017 -0.2517 41.9008 13.2819 -0.0000 0.0000 -6.9960 19.3594 -18.6340 -4.0385 0.0000 0.0000 -65.1590 20.9763 -55.7499 152.8666 -0.0000 -0.0000 49.6744 9.5023 -12.2208 38.0462 -0.0000 0.0000
 5.3936 34.8858 -9.1311 7.6988 -29.7778 -40.0632 -5.1196 1.2666 26.0070 3.5806 13.2640 11.5583 44.2774 36.4462 5.3339 -60.1126 27.7158 -48.4796 -20.7496 -0.0000 -1.6724 3.0272 -12.9365 13.2908 33.1476 -0.0000 26.2537 20.0071 -20.3953 -13.1782 6.1488 0.6549 80.0406 63.7229 0.0000 -35.7635 -0.9597 3.7709 14.2895 32.8623 0.0000 -24.3270 -12.6034 -0.0891 42.0070 13.0334 -0.0000 -0.0000 -6.8165 19.3595 -19.1795 -3.6586 -0.0000 0.0000 -64.9686 20.9330 -55.9911 152.9139 0.0000 -0.0000 49.8357 9.6617 -12.3582 38.0551 -0.0000 -0.0000
 5.3745 34.9064 -9.0959 7.6848 -29.7583 -40.1051 -5.1003 1.1331 25.9817 3.6421 13.2870 11.8007 44.3067 36.4347 5.2728 -60.2425 27.5654 -48.4453 -20.8318 -0.0000 -1.6431 3.0071 -13.0451 13.1015 33.1476 -0.0000 26.2537 20.1092 -20.4569 -13.1648 6.1099 0.6450 80.0881 63.8643 0.0000 -35.6730 -0.9509 3.7548 14.2219 32.8623 0.0000 -24.3270 -12.5553 0.0945 42.0907 12.8557 -0.0000 0.0000 -6.6041 19.3255 -19.6494 -3.3449 -0.0000 -0.0000 -64.8000 20.9351 -56.2270 152.9453 0.0000 0.0000 49.9999 9.7781 -12.4155 37.9137 0.0000 -0.0000
 5.3576 34.9266 -9.0667 7.7046 -29.7592 -40.1042 -5.1060 1.0142 25.9128 3.6691 13.3230 12.0603 44.2697 36.4251 5.2648 -60.2761 27.4170 -48.4536 -20.9751 -0.0000 -1.6337 3.0059 -12.9943 13.1450 33.1476 -0.0000 26.2537 20.2076 -20.4627 -13.1488 6.1356 0.6517 80.1505 64.0002 0.0000 -35.7606 -1.0067 4.0314 14.0337 32.8623 0.0000 -24.3270 -12.5929 0.2754 42.1628 12.7296 0.0000 0.0000 -6.3330 19.1792 -20.1839 -3.1171 -0.0000 -0.0000 -64.6913 20.9878 -56.4556 152.9664 0.0000 -0.0000 50.1782 9.9419 -12.5253 37.9312 -0.0000 -0.0000
 5.3395 34.9447 -9.0360 7.6913 -29.7567 -40.1086 -5.0948 0.9353 25.8327 3.6760 13.3511 12.3181 44.2167 36.3811 5.2949 -60.3180 27.3472 -48.4539 -21.1385 -0.0000 -1.5699 3.0107 -12.9896 13.1697 33.1476 -0.0000 26.2537 20.2046 -20.4414 -13.1451 6.2620 0.6250 80.1687 64.1628 0.0000 -35.7345 -0.9988 4.0589 13.8373 32.8623 0.0000 -24.3270 -12.7245 0.5412 42.2247 12.6733 -0.0000 -0.0000 -6.0878 19.0224 -20.6165 -2.9411 0.0000 0.0000 -64.5558 21.0620 -56.6941 152.9963 0.0000 -0.0000 50.2741 10.0903 -12.7355 37.8306 0.0000 0.0000
 5.3212 34.9627 -9.0073 7.6788 -29.7737 -40.1474 -5.0891 0.8730 25.7935 3.6392 13.3680 12.5456 44.1573 36.3519 5.2897 -60.0377 27.0258 -48.5628 -21.4618 -0.0000 -1.8370 3.0486 -12.9127 13.4050 33.1476 -0.0000 26.2537 20.2508 -20.4595 -13.1268 6.3284 0.7393 80.1270 64.2610 0.0000 -35.8496 -1.0743 4.4131 13.6960 32.8623 0.0000 -24.3270 -12.7588 0.7509 42.2778 12.5276 -0.0000 0.0000 -5.8835 19.0993 -20.8179 -2.7645 -0.0000 0.0000 -64.4553 21.1407 -56.8771 152.9785 -0.0000 0.0000 50.4612 10.2240 -12.8652 37.7854 -0.0000 0.0000
 5.3006 34.9793 -8.9789 7.6561 -29.8061 -40.2133 -5.1004 0.8460 25.7839 3.5889 13.3673 12.7458 44.1609 36.3166 5.3135 -60.0788 26.9941 -48.6354 -21.6601 -0.0000 -1.7604 3.0707 -12.9333 13.4786 33.1476 -0.0000 26.2537 20.3102 -20.5135 -13.1140 6.3305 0.7232 80.1042 64.4032 0.0000 -35.7760 -1.0420 4.2567 13.7691 32.8623 0.0000 -24.3270 -12.7920 0.9307 42.3528 12.4414 -0.0000 0.0000 -5.7029 19.2354 -21.0048 -2.6029 -0.0000 0.0000 -64.4072 21.1842 -57.0232 152.9706 0.0000 0.0000 50.5165 10.2643 -12.9640 37.7160 0.0000 0.0000
 5.2807 34.9971 -8.9564 7.6307 -29.8602 -40.3259 -5.0917 0.8231 25.8337 3.5103 13.3999 12.8932 44.1507 36.3025 5.3057 -60.0748 26.9427 -48.7296 -21.8687 -0.0000 -1.6347 3.0942 -12.9529 13.5589 33.1476 -0.0000 26.2537 20.2985 -20.5419 -13.1491 6.3679 0.7154 80.0893 64.5275 0.0000 -35.6227 -1.0597 4.3212 13.7935 32.8623 0.0000 -24.3270 -12.9115 1.1367 42.4971 12.4155 0.0000 0.0000 -5.5377 19.2853 -21.2686 -2.3851 -0.0000 -0.0000 -64.4093 21.1917 -57.0954 152.9593 0.0000 -0.0000 50.5844 10.3877 -13.0996 37.6080 -0.0000 -0.0000
 5.2564 35.0149 -8.9343 7.5800 -29.9382 -40.4517 -5.0995 0.8505 25.8634 3.4165 13.4547 13.0860 44.1129 36.2951 5.3600 -60.0509 26.9185 -48.8379 -22.0844 -0.0000 -1.4952 3.0923 -12.9176 13.5858 33.1476 -0.0000 26.2537 20.3783 -20.6091 -13.1216 6.2693 0.5745 80.0915 64.7016 0.0000 -35.3691 -0.9633 3.8862 13.9330 32.8623 0.0000 -24.3270 -13.1019 1.4761 42.6751 12.3619 -0.0000 -0.0000 -5.3860 19.2223 -21.5630 -2.0176 -0.0000 0.0000 -64.4034 21.2498 -57.1377 152.9374 -0.0000 -0.0000 50.7289 10.5603 -13.1905 37.5683 -0.0000 0.0000
